<?xml version="1.0" encoding="UTF-8"?>
<svg xmlns="http://www.w3.org/2000/svg" width="48" height="48" viewBox="0 0 48 48">
<g transform="rotate(45 24 24)">
    <path d="M15,15h18c2.2,0 4,1.8 4,4v18c0,2.2 -1.8,4 -4,4h-18c-2.2,0 -4,-1.8 -4,-4v-18c0,-2.2 1.8,-4 4,-4z" fill="none" stroke="#FFFFFF" stroke-width="1.35" stroke-linecap="round" stroke-linejoin="round"/>
  </g>
  <path d="M14,27 L34,27" fill="none" stroke="#FFFFFF" stroke-width="1.35" stroke-linecap="round" stroke-linejoin="round"/>
  <path d="M14,31 L34,31" fill="none" stroke="#FFFFFF" stroke-width="1.35" stroke-linecap="round" stroke-linejoin="round"/>
  <path d="M18,24.5a2,2 0 1,1 -0.01,0 M18,26.5 L18,31 M18,26.5 L30,26.5 M30,26.5 L30,31" fill="none" stroke="#FFFFFF" stroke-width="1.35" stroke-linecap="round" stroke-linejoin="round"/>
</svg>
